{"glyphs":{"S":{"x_min":62.015625,"x_max":836,"ha":907,"o":"m 62 319 l 182 330 q 222 207 190 255 q 320 130 253 159 q 470 101 386 101 q 600 123 543 101 q 684 184 656 145 q 712 269 712 223 q 685 351 712 316 q 597 410 658 386 q 424 458 558 425 q 236 520 289 491 q 132 612 166 557 q 98 736 98 668 q 139 876 98 811 q 262 976 181 942 q 441 1010 342 1010 q 632 973 549 1010 q 760 867 715 937 q 804 709 804 797 l 683 709 q 615 846 673 798 q 446 894 558 894 q 275 850 329 894 q 222 745 222 806 q 259 657 222 691 q 454 586 297 622 q 670 523 611 550 q 795 421 755 483 q 836 280 836 360 q 791 131 836 201 q 663 21 746 60 q 475 -17 579 -17 q 253 22 342 -17 q 112 140 163 61 q 62 319 62 219 "},"Ⱬ":{"x_min":27.03125,"x_max":797,"ha":831,"o":"m 797 -275 l 683 -275 l 683 0 l 27 0 l 27 121 l 627 876 l 83 876 l 83 993 l 781 993 l 781 876 l 174 117 l 797 117 l 797 -275 "},"/":{"x_min":0,"x_max":378.15625,"ha":378,"o":"m 0 -17 l 282 1010 l 378 1010 l 96 -17 l 0 -17 "},"ⱡ":{"x_min":14,"x_max":280,"ha":303,"o":"m 280 363 l 207 363 l 207 0 l 87 0 l 87 363 l 14 363 l 14 452 l 87 452 l 87 542 l 14 542 l 14 631 l 87 631 l 87 994 l 207 994 l 207 631 l 280 631 l 280 542 l 207 542 l 207 452 l 280 452 l 280 363 "},"K":{"x_min":100,"x_max":905.5625,"ha":908,"o":"m 100 0 l 100 994 l 229 994 l 229 501 l 712 994 l 887 994 l 478 591 l 905 0 l 735 0 l 388 503 l 229 344 l 229 0 l 100 0 "},"7":{"x_min":64,"x_max":695,"ha":757,"o":"m 64 863 l 64 980 l 695 980 l 695 885 q 508 616 601 784 q 364 272 415 449 q 328 0 328 148 l 201 0 q 244 282 201 116 q 369 603 287 448 q 541 863 450 757 l 64 863 "},"d":{"x_min":47,"x_max":659,"ha":757,"o":"m 548 0 l 548 91 q 350 -16 480 -16 q 195 31 266 -16 q 85 163 124 78 q 47 359 47 248 q 82 554 47 467 q 187 689 117 642 q 345 736 258 736 q 458 708 409 736 q 540 637 508 681 l 540 994 l 659 994 l 659 0 l 548 0 m 169 359 q 227 152 169 221 q 361 84 284 84 q 495 149 440 84 q 550 349 550 215 q 494 565 550 496 q 356 635 438 635 q 223 568 276 635 q 169 359 169 502 "},",":{"x_min":112.5625,"x_max":257,"ha":378,"o":"m 120 0 l 120 139 l 257 139 l 257 0 q 230 -123 257 -76 q 145 -196 203 -170 l 112 -144 q 168 -94 150 -127 q 187 0 187 -61 l 120 0 "},"Y":{"x_min":3.5,"x_max":896.796875,"ha":907,"o":"m 379 0 l 379 421 l 3 994 l 160 994 l 352 694 q 451 526 405 610 q 557 701 495 604 l 746 994 l 896 994 l 508 421 l 508 0 l 379 0 "},"E":{"x_min":108,"x_max":835.15625,"ha":908,"o":"m 108 0 l 108 993 l 812 993 l 812 876 l 237 876 l 237 572 l 776 572 l 776 455 l 237 455 l 237 117 l 835 117 l 835 0 l 108 0 "},"y":{"x_min":21.9375,"x_max":668.59375,"ha":681,"o":"m 84 -277 l 71 -162 q 139 -173 110 -173 q 203 -159 179 -173 q 242 -121 227 -145 q 279 -30 253 -103 q 289 0 282 -20 l 21 720 l 150 720 l 297 303 q 348 136 326 224 q 398 300 369 220 l 548 720 l 668 720 l 400 -12 q 332 -175 356 -130 q 259 -263 301 -235 q 161 -292 218 -292 q 84 -277 126 -292 "},"ⱥ":{"x_min":16.421875,"x_max":733.28125,"ha":757,"o":"m 733 994 l 584 689 q 617 660 605 675 q 655 576 645 626 q 661 464 661 547 l 661 302 q 665 148 661 163 q 699 0 665 56 l 574 0 q 550 89 555 38 q 290 -16 429 -16 q 242 -13 265 -16 l 114 -277 l 16 -277 l 157 10 q 111 42 131 23 q 49 190 49 100 q 134 356 49 297 q 220 396 174 383 q 327 415 251 405 l 355 418 l 455 622 q 370 635 418 635 q 249 606 289 635 q 186 498 206 576 l 69 514 q 227 710 100 664 q 388 736 296 736 q 503 723 454 736 l 635 994 l 733 994 m 540 488 q 525 568 540 538 l 461 436 q 540 457 509 445 q 540 488 540 482 m 540 316 l 540 361 q 408 325 491 341 l 288 82 q 319 80 305 80 q 521 195 467 80 q 540 316 540 236 m 301 308 q 240 291 260 299 q 177 193 177 262 q 208 117 177 148 l 301 308 "},"\"":{"x_min":62,"x_max":419,"ha":483,"o":"m 95 642 l 62 831 l 62 994 l 198 994 l 198 831 l 168 642 l 95 642 m 315 642 l 283 831 l 283 994 l 419 994 l 419 831 l 387 642 l 315 642 "},"ⱨ":{"x_min":90,"x_max":742,"ha":757,"o":"m 742 -204 l 644 -204 l 644 0 l 545 0 l 545 456 q 396 631 545 631 q 297 603 342 631 q 229 526 249 575 q 210 393 210 478 l 210 0 l 90 0 l 90 994 l 210 994 l 210 637 q 421 736 293 736 q 640 617 587 736 q 665 456 665 562 l 665 100 l 742 100 l 742 -204 "},"g":{"x_min":44,"x_max":666,"ha":757,"o":"m 66 -59 l 184 -77 q 224 -157 191 -132 q 345 -191 269 -191 q 473 -157 428 -191 q 534 -62 518 -123 q 544 94 544 -25 q 348 0 465 0 q 123 107 203 0 q 44 363 44 214 q 80 554 44 466 q 186 688 117 641 q 349 736 255 736 q 555 632 474 736 l 555 720 l 666 720 l 666 97 q 632 -140 666 -70 q 526 -251 598 -210 q 347 -292 453 -292 q 143 -234 221 -292 q 66 -59 66 -176 m 166 372 q 222 166 166 231 q 360 101 277 101 q 498 165 442 101 q 554 368 554 230 q 496 567 554 500 q 358 635 439 635 q 222 568 278 635 q 166 372 166 502 "},"ꜗ":{"x_min":-115,"x_max":116,"ha":0,"o":"m 116 644 l 38 644 l 38 994 l 116 994 l 116 644 m -17 773 l -115 773 l -115 864 l -17 864 l -17 773 "},"ⱴ":{"x_min":38.796875,"x_max":664.4375,"ha":680,"o":"m 664 719 l 397 0 l 285 0 l 141 373 l 74 348 l 38 441 l 106 466 l 89 517 q 78 581 78 550 q 125 691 78 646 q 237 736 173 736 q 339 689 300 736 q 376 580 376 645 q 245 410 376 460 l 340 143 l 541 719 l 664 719 m 276 575 q 262 614 276 596 q 229 632 249 632 q 190 585 190 632 q 195 554 190 570 l 212 503 q 276 575 276 528 "},"e":{"x_min":50,"x_max":700.046875,"ha":757,"o":"m 573 232 l 696 216 q 588 45 667 106 q 386 -16 509 -16 q 140 81 231 -16 q 50 354 50 178 q 141 635 50 535 q 379 736 233 736 q 610 638 520 736 q 700 361 700 539 q 700 329 700 350 l 177 329 q 236 147 177 210 q 385 84 296 84 q 498 119 451 84 q 573 232 545 154 m 182 429 l 574 429 q 528 565 566 520 q 379 636 471 636 q 239 579 296 636 q 182 429 182 523 "},"J":{"x_min":38,"x_max":575,"ha":681,"o":"m 38 281 l 158 297 q 195 142 158 184 q 299 100 233 100 q 383 122 348 100 q 432 184 419 145 q 446 308 446 223 l 446 993 l 575 993 l 575 316 q 545 123 575 191 q 452 18 515 54 q 301 -17 388 -17 q 105 58 173 -17 q 38 281 38 133 "},"|":{"x_min":125,"x_max":229,"ha":353,"o":"m 125 -292 l 125 1011 l 229 1011 l 229 -292 l 125 -292 "},"ⱬ":{"x_min":26.625,"x_max":651,"ha":680,"o":"m 651 -204 l 553 -204 l 553 0 l 26 0 l 26 99 l 475 623 q 340 623 399 623 l 53 623 l 53 720 l 630 720 l 630 639 l 174 102 q 324 102 254 102 l 651 102 l 651 -204 "},"Ᵽ":{"x_min":11,"x_max":848,"ha":907,"o":"m 848 706 q 483 404 848 404 l 234 404 l 234 0 l 105 0 l 105 650 l 11 650 l 11 739 l 105 739 l 105 994 l 472 994 q 620 984 566 994 q 818 842 762 959 q 848 706 848 781 m 715 702 q 687 806 715 762 q 602 868 657 853 q 482 877 571 877 l 234 877 l 234 739 l 469 739 l 469 650 l 234 650 l 234 521 l 485 521 q 715 702 715 521 "},"^":{"x_min":35.890625,"x_max":602.796875,"ha":639,"o":"m 158 468 l 35 468 l 270 1011 l 366 1011 l 602 468 l 482 468 l 318 872 l 158 468 "},"q":{"x_min":48,"x_max":660,"ha":758,"o":"m 540 -276 l 540 76 q 461 10 512 36 q 355 -16 411 -16 q 138 86 229 -16 q 48 366 48 188 q 84 561 48 475 q 191 691 121 647 q 345 736 262 736 q 552 623 476 736 l 552 720 l 660 720 l 660 -276 l 540 -276 m 170 362 q 228 153 170 223 q 365 84 285 84 q 496 150 441 84 q 552 351 552 216 q 493 567 552 494 q 357 640 435 640 q 225 572 279 640 q 170 362 170 505 "},"b":{"x_min":89,"x_max":701,"ha":757,"o":"m 200 0 l 89 0 l 89 994 l 208 994 l 208 639 q 402 736 284 736 q 525 709 467 736 q 621 634 583 682 q 679 517 658 585 q 701 371 701 448 q 611 84 701 185 q 396 -16 521 -16 q 200 90 271 -16 l 200 0 m 199 365 q 233 178 199 236 q 386 84 290 84 q 521 153 464 84 q 579 360 579 223 q 524 568 579 501 q 391 636 469 636 q 256 566 313 636 q 199 365 199 497 "},"D":{"x_min":105,"x_max":911,"ha":983,"o":"m 105 0 l 105 993 l 440 993 q 614 978 554 993 q 757 907 698 959 q 872 737 834 841 q 911 501 911 634 q 885 301 911 388 q 818 156 859 214 q 729 66 778 99 q 613 16 681 33 q 456 0 545 0 l 105 0 m 234 117 l 442 117 q 593 135 538 117 q 680 186 648 153 q 752 312 726 233 q 778 503 778 391 q 727 743 778 659 q 605 855 677 827 q 438 876 553 876 l 234 876 l 234 117 "},"ⱪ":{"x_min":90,"x_max":675,"ha":680,"o":"m 675 -204 l 577 -204 l 577 0 l 527 0 l 294 367 l 210 285 l 210 0 l 90 0 l 90 994 l 210 994 l 210 426 l 493 720 l 647 720 l 378 452 l 609 100 l 675 100 l 675 -204 "},"￼":{"x_min":0,"x_max":1361,"ha":1361,"o":"m 1361 778 l 1295 778 l 1295 930 l 1146 930 l 1146 998 l 1361 998 l 1361 778 m 979 930 l 764 930 l 764 998 l 979 998 l 979 930 m 1361 390 l 1295 390 l 1295 609 l 1361 609 l 1361 390 m 1184 414 q 1044 251 1184 251 q 952 281 987 251 l 1000 334 q 1043 317 1017 317 q 1107 411 1107 317 l 1107 738 l 1184 738 l 1184 414 m 597 930 l 382 930 l 382 998 l 597 998 l 597 930 m 1361 0 l 1146 0 l 1146 68 l 1295 68 l 1295 219 l 1361 219 l 1361 0 m 946 400 q 763 259 946 259 l 604 259 l 604 739 l 760 739 q 926 612 926 739 q 867 514 926 551 q 946 400 946 483 m 214 930 l 66 930 l 66 778 l 0 778 l 0 998 l 214 998 l 214 930 m 979 0 l 764 0 l 764 68 l 979 68 l 979 0 m 568 498 q 513 316 568 381 q 357 251 458 251 q 201 316 255 251 q 148 498 148 381 q 201 681 148 616 q 357 747 255 747 q 513 681 458 747 q 568 498 568 616 m 66 390 l 0 390 l 0 609 l 66 609 l 66 390 m 597 0 l 382 0 l 382 68 l 597 68 l 597 0 m 214 0 l 0 0 l 0 219 l 66 219 l 66 68 l 214 68 l 214 0 m 849 605 q 740 673 849 673 l 681 673 l 681 541 l 748 541 q 849 605 849 541 m 869 400 q 755 475 869 475 l 681 475 l 681 325 l 763 325 q 869 400 869 325 m 491 498 q 357 681 491 681 q 225 498 225 681 q 357 317 225 317 q 491 498 491 317 "},"z":{"x_min":27,"x_max":652,"ha":681,"o":"m 27 0 l 27 99 l 476 623 q 341 623 400 623 l 54 623 l 54 720 l 631 720 l 631 639 l 248 182 l 174 102 q 325 102 255 102 l 652 102 l 652 0 l 27 0 "},"ⱶ":{"x_min":90,"x_max":541.640625,"ha":579,"o":"m 541 319 l 210 319 l 210 0 l 90 0 l 90 720 l 210 720 l 210 420 l 541 420 l 541 319 "},"w":{"x_min":3.984375,"x_max":972.3125,"ha":983,"o":"m 219 0 l 3 720 l 127 720 l 239 304 l 281 149 q 318 298 284 161 l 430 720 l 553 720 l 659 302 l 694 164 l 735 303 l 856 720 l 972 720 l 751 0 l 627 0 l 515 431 l 487 553 l 344 0 l 219 0 "},"$":{"x_min":51.890625,"x_max":693,"ha":757,"o":"m 339 -143 l 339 -21 q 192 19 249 -9 q 93 115 135 49 q 51 275 51 180 l 169 298 q 218 154 183 200 q 339 81 268 89 l 339 470 q 188 528 265 484 q 99 618 130 561 q 69 749 69 676 q 159 960 69 879 q 339 1026 220 1014 l 339 1085 l 409 1085 l 409 1026 q 574 964 513 1016 q 669 782 653 897 l 545 763 q 501 873 534 834 q 409 923 467 911 l 409 571 q 528 535 499 548 q 619 474 584 510 q 674 388 655 438 q 693 280 693 338 q 613 68 693 153 q 409 -17 534 -17 l 409 -143 l 339 -143 m 339 925 q 229 868 269 914 q 189 759 189 822 q 223 654 189 696 q 339 587 257 612 l 339 925 m 409 81 q 524 143 478 90 q 570 274 570 196 q 537 381 570 340 q 409 453 505 421 l 409 81 "},"\\":{"x_min":0,"x_max":378.15625,"ha":378,"o":"m 282 -17 l 0 1010 l 96 1010 l 378 -17 l 282 -17 "},"~":{"x_min":58,"x_max":738,"ha":795,"o":"m 58 377 l 58 516 q 242 598 128 598 q 326 586 282 598 q 451 538 370 574 q 520 513 497 519 q 566 507 543 507 q 655 533 609 507 q 738 600 702 559 l 738 456 q 651 397 695 415 q 553 379 608 379 q 477 388 513 379 q 362 434 441 398 q 231 470 284 470 q 151 451 188 470 q 58 377 113 432 "},"-":{"x_min":43,"x_max":411,"ha":454,"o":"m 43 298 l 43 421 l 411 421 l 411 298 l 43 298 "},"Q":{"x_min":58,"x_max":1008.609375,"ha":1058,"o":"m 843 106 q 1008 14 932 43 l 970 -77 q 761 44 865 -38 q 521 -17 652 -17 q 282 48 389 -17 q 116 231 174 113 q 58 496 58 348 q 116 764 58 643 q 283 947 175 884 q 524 1011 391 1011 q 767 945 659 1011 q 933 762 876 880 q 990 497 990 645 q 953 277 990 375 q 843 106 916 179 m 559 274 q 743 180 670 242 q 857 497 857 285 q 816 708 857 618 q 699 848 776 798 q 525 898 621 898 q 286 797 381 898 q 191 497 191 696 q 285 199 191 303 q 525 96 379 96 q 655 122 594 96 q 527 179 595 162 l 559 274 "},"M":{"x_min":101,"x_max":1031,"ha":1134,"o":"m 101 0 l 101 994 l 294 994 l 525 290 q 572 143 557 191 q 624 302 588 197 l 857 994 l 1031 994 l 1031 0 l 907 0 l 907 831 l 623 0 l 507 0 l 225 846 l 225 0 l 101 0 "},"C":{"x_min":68,"x_max":929.40625,"ha":983,"o":"m 800 348 l 929 315 q 783 68 888 153 q 525 -17 678 -17 q 269 48 368 -17 q 119 237 171 113 q 68 504 68 362 q 126 775 68 659 q 291 950 184 890 q 527 1011 399 1011 q 773 934 674 1011 q 912 721 873 858 l 785 690 q 687 848 751 799 q 525 898 623 898 q 337 843 413 898 q 231 695 262 788 q 201 505 201 603 q 237 283 201 378 q 349 142 273 189 q 515 96 426 96 q 698 159 623 96 q 800 348 773 223 "},"[":{"x_min":92,"x_max":356.21875,"ha":378,"o":"m 92 -276 l 92 993 l 356 993 l 356 892 l 212 892 l 212 -175 l 356 -175 l 356 -276 l 92 -276 "},"Ⱨ":{"x_min":109,"x_max":962,"ha":983,"o":"m 962 -276 l 848 -276 l 848 0 l 744 0 l 744 468 l 238 468 l 238 0 l 109 0 l 109 994 l 238 994 l 238 585 l 744 585 l 744 994 l 873 994 l 873 117 l 962 117 l 962 -276 "},"L":{"x_min":100,"x_max":708.84375,"ha":757,"o":"m 100 0 l 100 993 l 229 993 l 229 117 l 708 117 l 708 0 l 100 0 "},"꜡":{"x_min":-231,"x_max":205.234375,"ha":1,"o":"m 205 0 l -231 0 l -231 234 l -153 234 l -153 79 l -32 79 l -32 234 l 46 234 l 46 79 l 205 79 l 205 0 "},"!":{"x_min":122,"x_max":260,"ha":378,"o":"m 135 247 l 135 773 l 135 994 l 248 994 l 248 773 l 248 247 l 135 247 m 122 0 l 122 139 l 260 139 l 260 0 l 122 0 "},"Ɫ":{"x_min":-8,"x_max":721.625,"ha":757,"o":"m 721 0 l 146 0 l 146 481 q 131 484 138 484 q 80 419 80 484 l -8 419 q 27 527 -8 485 q 127 574 64 574 q 146 572 136 574 l 146 993 l 275 993 l 275 522 q 302 517 291 517 q 350 575 342 517 l 435 575 q 307 421 435 421 q 275 425 293 421 l 275 117 l 721 117 l 721 0 "}," ":{"x_min":0,"x_max":0,"ha":378},"{":{"x_min":38,"x_max":423,"ha":455,"o":"m 38 416 q 121 442 89 416 q 165 516 154 469 q 176 676 176 563 q 179 825 176 789 q 202 916 185 882 q 242 971 218 951 q 303 1003 266 992 q 385 1010 328 1010 l 423 1010 l 423 904 l 402 904 q 310 878 333 904 q 288 765 288 853 q 280 541 288 587 q 239 429 268 468 q 149 359 211 390 q 255 264 222 328 q 288 54 288 200 q 290 -103 288 -78 q 317 -167 295 -149 q 402 -186 339 -186 l 423 -186 l 423 -292 l 385 -292 q 291 -281 320 -292 q 220 -230 248 -265 q 184 -142 192 -195 q 176 33 176 -88 q 165 202 176 155 q 121 276 154 249 q 38 304 89 304 l 38 416 "},"X":{"x_min":5.984375,"x_max":899.21875,"ha":908,"o":"m 5 0 l 382 518 l 50 994 l 204 994 l 380 739 q 459 617 435 659 q 536 730 491 671 l 732 994 l 872 994 l 530 525 l 899 0 l 739 0 l 494 354 q 451 421 473 385 q 405 346 419 366 l 160 0 l 5 0 "},"P":{"x_min":105,"x_max":849,"ha":908,"o":"m 105 0 l 105 994 l 472 994 q 620 984 569 994 q 741 938 692 972 q 819 842 789 903 q 849 706 849 780 q 769 491 849 579 q 483 404 690 404 l 234 404 l 234 0 l 105 0 m 234 521 l 485 521 q 663 568 610 521 q 716 702 716 616 q 685 809 716 764 q 603 868 654 853 q 483 877 571 877 l 234 877 l 234 521 "},"%":{"x_min":79,"x_max":1126,"ha":1210,"o":"m 79 754 q 131 935 79 860 q 283 1010 184 1010 q 435 943 375 1010 q 496 747 496 876 q 435 553 496 621 q 285 485 374 485 q 137 552 196 485 q 79 754 79 619 m 287 926 q 212 886 242 926 q 183 742 183 847 q 213 607 183 646 q 287 569 243 569 q 362 608 332 569 q 392 751 392 647 q 361 887 392 848 q 287 926 331 926 m 287 -37 l 820 1010 l 917 1010 l 387 -37 l 287 -37 m 709 232 q 761 413 709 339 q 914 488 813 488 q 1065 421 1005 488 q 1126 225 1126 354 q 1065 31 1126 99 q 914 -37 1004 -37 q 767 30 826 -37 q 709 232 709 97 m 917 404 q 842 364 872 404 q 813 220 813 325 q 842 86 813 125 q 916 47 872 47 q 992 86 962 47 q 1022 229 1022 125 q 992 365 1022 326 q 917 404 962 404 "},"#":{"x_min":14,"x_max":740,"ha":757,"o":"m 68 -16 l 126 272 l 14 272 l 14 373 l 146 373 l 195 619 l 14 619 l 14 720 l 215 720 l 273 1010 l 373 1010 l 315 720 l 524 720 l 582 1010 l 682 1010 l 624 720 l 740 720 l 740 619 l 605 619 l 555 373 l 740 373 l 740 272 l 535 272 l 477 -16 l 377 -16 l 434 272 l 226 272 l 168 -16 l 68 -16 m 246 373 l 454 373 l 504 619 l 295 619 l 246 373 "},"_":{"x_min":-21,"x_max":772,"ha":757,"o":"m -21 -276 l -21 -188 l 772 -188 l 772 -276 l -21 -276 "},"Ⱡ":{"x_min":7,"x_max":708.84375,"ha":757,"o":"m 708 0 l 100 0 l 100 363 l 7 363 l 7 452 l 100 452 l 100 542 l 7 542 l 7 631 l 100 631 l 100 993 l 229 993 l 229 631 l 497 631 l 497 542 l 229 542 l 229 452 l 497 452 l 497 363 l 229 363 l 229 117 l 708 117 l 708 0 "},"+":{"x_min":76,"x_max":719,"ha":795,"o":"m 341 161 l 341 433 l 76 433 l 76 547 l 341 547 l 341 818 l 454 818 l 454 547 l 719 547 l 719 433 l 454 433 l 454 161 l 341 161 "},"Ⱪ":{"x_min":100,"x_max":905,"ha":908,"o":"m 905 -276 l 791 -276 l 791 0 l 735 0 l 388 502 l 229 344 l 229 0 l 100 0 l 100 994 l 229 994 l 229 500 l 712 994 l 887 994 l 478 591 l 820 117 l 905 117 l 905 -276 "},")":{"x_min":82.28125,"x_max":403.953125,"ha":453,"o":"m 168 -292 l 82 -292 q 281 359 281 33 q 252 612 281 486 q 189 807 229 714 q 82 1011 163 868 l 168 1011 q 352 669 292 840 q 403 360 403 521 q 335 6 403 177 q 168 -292 266 -164 "},"'":{"x_min":60,"x_max":196,"ha":260,"o":"m 90 642 l 60 827 l 60 994 l 196 994 l 196 827 l 164 642 l 90 642 "},"}":{"x_min":31,"x_max":416,"ha":455,"o":"m 416 416 l 416 304 q 332 276 364 304 q 288 202 299 249 q 278 42 278 156 q 274 -106 278 -70 q 251 -198 268 -164 q 211 -253 235 -232 q 150 -284 187 -273 q 68 -292 125 -292 l 31 -292 l 31 -186 l 51 -186 q 143 -160 120 -186 q 166 -46 166 -135 q 171 168 166 123 q 214 289 182 244 q 304 359 246 334 q 197 458 228 397 q 166 665 166 519 q 162 822 166 797 q 136 886 158 868 q 51 904 114 904 l 31 904 l 31 1010 l 68 1010 q 162 999 133 1010 q 233 949 205 984 q 269 860 261 914 q 278 685 278 807 q 288 516 278 563 q 331 443 299 470 q 416 416 364 416 "},"a":{"x_min":49,"x_max":698.890625,"ha":757,"o":"m 550 89 q 422 7 483 31 q 290 -16 360 -16 q 111 41 174 -16 q 49 190 49 99 q 72 286 49 242 q 134 356 96 330 q 220 396 172 383 q 327 415 256 406 q 540 457 471 432 q 540 488 540 482 q 506 593 540 563 q 370 635 460 635 q 246 604 286 635 q 186 498 206 574 l 69 514 q 122 638 85 591 q 227 710 158 685 q 387 736 296 736 q 534 714 478 736 q 617 659 591 692 q 655 576 644 626 q 661 464 661 545 l 661 302 q 668 86 661 132 q 698 0 676 41 l 574 0 q 550 89 555 38 m 540 361 q 345 315 475 334 q 240 291 271 304 q 193 251 210 277 q 177 193 177 225 q 213 112 177 144 q 319 80 249 80 q 442 110 388 80 q 521 195 495 141 q 540 316 540 236 l 540 361 "},"T":{"x_min":32,"x_max":804,"ha":831,"o":"m 353 0 l 353 876 l 32 876 l 32 993 l 804 993 l 804 876 l 482 876 l 482 0 l 353 0 "},"=":{"x_min":76,"x_max":719,"ha":795,"o":"m 719 585 l 76 585 l 76 699 l 719 699 l 719 585 m 719 283 l 76 283 l 76 397 l 719 397 l 719 283 "},"N":{"x_min":104,"x_max":872,"ha":984,"o":"m 104 0 l 104 994 l 236 994 l 748 213 l 748 994 l 872 994 l 872 0 l 739 0 l 228 781 l 228 0 l 104 0 "},"2":{"x_min":41,"x_max":686,"ha":758,"o":"m 686 117 l 686 0 l 41 0 q 56 84 41 44 q 134 216 80 151 q 290 367 188 281 q 505 577 449 500 q 561 724 561 655 q 510 847 561 797 q 377 897 459 897 q 238 844 290 897 q 187 697 187 791 l 64 710 q 159 924 76 850 q 380 998 241 998 q 602 918 520 998 q 684 721 684 839 q 660 604 684 662 q 580 483 636 547 q 396 308 525 419 q 258 183 288 216 q 207 117 227 150 l 686 117 "},"j":{"x_min":-62.53125,"x_max":209,"ha":303,"o":"m 89 852 l 89 994 l 209 994 l 209 852 l 89 852 m -62 -279 l -39 -175 q 16 -185 -4 -185 q 71 -160 53 -185 q 89 -36 89 -135 l 89 719 l 209 719 l 209 -39 q 175 -224 209 -172 q 31 -292 131 -292 q -62 -279 -17 -292 "},"Z":{"x_min":27,"x_max":797,"ha":831,"o":"m 27 0 l 27 121 l 525 758 q 626 876 578 825 l 83 876 l 83 993 l 781 993 l 781 876 l 233 186 l 174 117 l 797 117 l 797 0 l 27 0 "},"ⱷ":{"x_min":48,"x_max":836,"ha":883,"o":"m 836 390 q 725 103 836 221 q 445 -16 612 -16 q 159 92 270 -16 q 48 377 48 200 q 120 619 48 515 q 331 735 201 735 l 308 628 q 170 382 170 581 q 226 194 170 273 q 387 89 283 111 l 387 536 q 393 632 387 604 q 442 711 404 685 q 539 736 478 736 q 692 697 633 736 q 794 573 752 658 q 836 390 836 487 m 710 402 q 682 549 710 485 q 572 635 645 635 q 512 588 526 635 q 505 501 505 564 l 505 94 q 661 208 605 113 q 710 402 710 290 "},"u":{"x_min":87,"x_max":659,"ha":757,"o":"m 552 0 l 552 105 q 328 -16 469 -16 q 211 8 265 -16 q 131 69 157 32 q 94 160 105 106 q 87 274 87 196 l 87 720 l 207 720 l 207 320 q 214 192 207 225 q 262 116 225 143 q 352 89 298 89 q 453 117 406 89 q 519 193 500 145 q 539 334 539 242 l 539 720 l 659 720 l 659 0 l 552 0 "},"1":{"x_min":147.734375,"x_max":507,"ha":757,"o":"m 507 0 l 387 0 l 387 777 q 273 693 343 735 q 147 630 203 651 l 147 748 q 323 865 248 796 q 429 998 398 933 l 507 998 l 507 0 "},"k":{"x_min":90,"x_max":675.21875,"ha":681,"o":"m 90 0 l 90 994 l 210 994 l 210 427 l 493 720 l 647 720 l 378 452 l 675 0 l 527 0 l 294 368 l 210 285 l 210 0 l 90 0 "},"Ⱶ":{"x_min":109,"x_max":744.4375,"ha":786,"o":"m 744 468 l 238 468 l 238 0 l 109 0 l 109 994 l 238 994 l 238 585 l 744 585 l 744 468 "},"<":{"x_min":74,"x_max":719,"ha":794,"o":"m 74 434 l 74 548 l 719 826 l 719 704 l 207 490 l 719 274 l 719 153 l 74 434 "},"t":{"x_min":24,"x_max":368.28125,"ha":378,"o":"m 351 109 l 368 1 q 278 -9 317 -9 q 177 12 212 -9 q 126 67 141 33 q 112 211 112 101 l 112 625 l 24 625 l 24 720 l 112 720 l 112 898 l 231 971 l 231 720 l 351 720 l 351 625 l 231 625 l 231 204 q 237 137 231 152 q 257 113 243 122 q 298 105 272 105 q 351 109 318 105 "},"W":{"x_min":16.609375,"x_max":1269.390625,"ha":1285,"o":"m 275 0 l 16 994 l 148 994 l 297 342 q 338 139 321 240 q 382 322 375 298 l 567 994 l 723 994 l 862 490 q 938 139 915 303 q 986 355 957 233 l 1139 994 l 1269 994 l 1002 0 l 877 0 l 672 757 q 642 873 646 852 q 613 757 626 805 l 406 0 l 275 0 "},"꜠":{"x_min":-231,"x_max":205.234375,"ha":1,"o":"m 205 914 l 46 914 l 46 758 l -32 758 l -32 914 l -153 914 l -153 758 l -231 758 l -231 993 l 205 993 l 205 914 "},"ꜙ":{"x_min":-171,"x_max":172,"ha":1,"o":"m 45 893 l -45 893 l -45 993 l 45 993 l 45 893 m 172 758 l -171 758 l -171 837 l 172 837 l 172 758 "},"v":{"x_min":17.28125,"x_max":664.609375,"ha":681,"o":"m 285 0 l 17 720 l 143 720 l 295 288 q 340 143 319 218 q 384 280 356 200 l 541 720 l 664 720 l 397 0 l 285 0 "},">":{"x_min":74,"x_max":719,"ha":794,"o":"m 719 434 l 74 153 l 74 274 l 584 490 l 74 704 l 74 826 l 719 548 l 719 434 "},"s":{"x_min":42.0625,"x_max":628,"ha":681,"o":"m 42 215 l 160 234 q 216 122 170 161 q 343 84 261 84 q 465 118 425 84 q 505 198 505 152 q 469 263 505 240 q 347 305 445 280 q 165 363 216 339 q 88 432 114 388 q 62 528 62 476 q 83 618 62 577 q 142 686 105 659 q 218 721 170 707 q 321 736 266 736 q 467 711 404 736 q 560 645 530 687 q 601 534 590 604 l 484 518 q 438 604 476 573 q 330 636 400 636 q 213 608 248 636 q 178 543 178 580 q 192 500 178 519 q 238 467 207 480 q 343 436 256 461 q 520 380 470 402 q 599 316 570 358 q 628 211 628 274 q 593 96 628 150 q 492 13 558 42 q 343 -16 426 -16 q 134 42 206 -16 q 42 215 61 100 "},"B":{"x_min":100,"x_max":836,"ha":908,"o":"m 100 0 l 100 993 l 465 993 q 645 962 577 993 q 750 870 712 932 q 789 739 789 807 q 754 619 789 675 q 652 528 720 563 q 788 438 740 502 q 836 288 836 374 q 807 158 836 218 q 735 65 778 98 q 628 16 693 33 q 471 0 564 0 l 100 0 m 229 576 l 439 576 q 562 587 525 576 q 637 636 612 602 q 662 723 662 671 q 638 810 662 773 q 572 862 615 848 q 423 876 528 876 l 229 876 l 229 576 m 229 117 l 471 117 q 559 121 534 117 q 633 148 604 129 q 682 204 663 167 q 702 288 702 240 q 674 384 702 343 q 596 442 646 425 q 454 459 547 459 l 229 459 l 229 117 "},"?":{"x_min":59.421875,"x_max":688,"ha":756,"o":"m 313 244 q 313 281 313 268 q 332 405 313 352 q 379 484 347 444 q 465 569 403 513 q 546 658 527 625 q 565 731 565 691 q 510 856 565 802 q 377 910 456 910 q 249 861 300 910 q 182 708 198 812 l 59 723 q 158 936 76 862 q 375 1010 240 1010 q 602 931 517 1010 q 688 739 688 851 q 658 619 688 674 q 541 485 628 564 q 464 407 482 432 q 437 350 446 382 q 429 244 429 317 l 313 244 m 306 0 l 306 139 l 442 139 l 442 0 l 306 0 "},"H":{"x_min":109,"x_max":873,"ha":983,"o":"m 109 0 l 109 994 l 238 994 l 238 585 l 744 585 l 744 994 l 873 994 l 873 0 l 744 0 l 744 468 l 238 468 l 238 0 l 109 0 "},"c":{"x_min":53,"x_max":667.75,"ha":680,"o":"m 550 263 l 667 248 q 569 54 648 124 q 374 -16 489 -16 q 141 80 229 -16 q 53 357 53 177 q 90 561 53 474 q 206 692 128 648 q 374 736 283 736 q 562 676 489 736 q 656 508 635 617 l 540 490 q 481 599 523 562 q 379 636 439 636 q 232 569 288 636 q 175 360 175 503 q 230 150 175 215 q 372 84 284 84 q 490 128 443 84 q 550 263 537 172 "},"&":{"x_min":58,"x_max":876.296875,"ha":908,"o":"m 646 117 q 517 16 587 50 q 366 -17 447 -17 q 129 86 216 -17 q 58 273 58 170 q 116 440 58 365 q 289 570 174 514 q 202 695 224 647 q 180 788 180 744 q 248 944 180 878 q 422 1010 317 1010 q 585 947 521 1010 q 649 798 649 885 q 465 556 649 656 l 639 329 q 686 467 669 389 l 810 440 q 724 226 778 310 q 876 74 791 135 l 795 -23 q 646 117 723 24 m 403 634 q 504 716 481 681 q 527 794 527 752 q 495 877 527 845 q 416 910 463 910 q 335 878 367 910 q 303 800 303 846 q 314 751 303 777 q 349 697 326 726 l 403 634 m 571 213 l 351 490 q 220 381 254 431 q 187 281 187 330 q 234 156 187 221 q 367 91 281 91 q 479 125 421 91 q 571 213 536 159 "},"I":{"x_min":127,"x_max":256,"ha":378,"o":"m 127 0 l 127 994 l 256 994 l 256 0 l 127 0 "},"G":{"x_min":72,"x_max":973,"ha":1058,"o":"m 560 389 l 560 506 l 973 506 l 973 138 q 776 22 877 61 q 569 -17 675 -17 q 308 45 426 -17 q 131 227 191 108 q 72 492 72 345 q 131 763 72 637 q 302 949 190 888 q 559 1011 414 1011 q 750 976 665 1011 q 884 878 836 941 q 958 715 933 816 l 842 683 q 787 802 820 758 q 694 871 755 845 q 560 898 634 898 q 407 870 472 898 q 303 798 343 843 q 242 700 264 753 q 205 500 205 608 q 249 278 205 367 q 380 145 294 188 q 562 102 466 102 q 726 134 646 102 q 847 204 805 167 l 847 389 l 560 389 "},"(":{"x_min":82,"x_max":403.671875,"ha":453,"o":"m 317 -292 q 150 6 218 -164 q 82 360 82 177 q 133 669 82 521 q 317 1011 193 840 l 403 1011 q 297 809 323 869 q 233 614 256 716 q 204 359 204 487 q 403 -292 204 33 l 317 -292 "},"`":{"x_min":59.15625,"x_max":309.046875,"ha":453,"o":"m 309 809 l 212 809 l 59 999 l 219 999 l 309 809 "},"U":{"x_min":107,"x_max":873,"ha":983,"o":"m 744 993 l 873 993 l 873 419 q 839 181 873 269 q 719 38 806 93 q 492 -17 633 -17 q 268 31 355 -17 q 144 170 181 79 q 107 419 107 261 l 107 993 l 236 993 l 236 420 q 259 229 236 290 q 340 135 283 168 q 481 102 398 102 q 683 167 623 102 q 744 420 744 233 l 744 993 "},"F":{"x_min":112,"x_max":769.359375,"ha":832,"o":"m 112 0 l 112 993 l 769 993 l 769 876 l 241 876 l 241 568 l 698 568 l 698 451 l 241 451 l 241 0 l 112 0 "},"r":{"x_min":88,"x_max":471.8125,"ha":453,"o":"m 88 0 l 88 720 l 196 720 l 196 610 q 272 711 237 687 q 348 736 306 736 q 471 696 409 736 l 430 583 q 342 610 386 610 q 272 585 303 610 q 227 519 241 561 q 207 376 207 454 l 207 0 l 88 0 "},":":{"x_min":123,"x_max":259,"ha":378,"o":"m 123 581 l 123 720 l 259 720 l 259 581 l 123 581 m 123 0 l 123 139 l 259 139 l 259 0 l 123 0 "},"x":{"x_min":9.96875,"x_max":670.59375,"ha":681,"o":"m 9 0 l 267 374 l 29 720 l 178 720 l 287 551 q 336 470 317 503 q 390 549 365 515 l 509 720 l 651 720 l 408 381 l 670 0 l 523 0 l 378 223 l 340 284 l 154 0 l 9 0 "},"*":{"x_min":42.1875,"x_max":481.46875,"ha":529,"o":"m 42 810 l 72 906 q 226 841 178 869 q 213 1010 213 963 l 308 1010 q 294 841 308 942 q 450 906 362 877 l 481 810 q 315 772 397 782 q 430 644 356 736 l 350 587 q 259 732 311 640 q 173 587 210 637 l 94 644 q 205 772 171 741 q 42 810 119 789 "},"ⱦ":{"x_min":-77.6875,"x_max":565.953125,"ha":379,"o":"m 565 994 l 231 204 q 240 133 231 151 q 298 105 254 105 q 351 109 318 105 l 368 1 q 278 -9 318 -9 q 152 30 193 -9 l 20 -277 l -77 -277 l 112 165 q 112 211 112 184 l 112 625 l 24 625 l 24 720 l 112 720 l 112 898 l 231 971 l 231 720 l 350 720 l 468 994 l 565 994 m 310 625 l 231 625 l 231 448 l 233 448 l 310 625 "},"V":{"x_min":5.984375,"x_max":897.21875,"ha":908,"o":"m 383 0 l 5 994 l 145 994 l 398 271 q 449 109 429 185 q 502 271 472 190 l 765 994 l 897 994 l 515 0 l 383 0 "},"h":{"x_min":90,"x_max":665,"ha":757,"o":"m 90 0 l 90 994 l 210 994 l 210 637 q 421 736 293 736 q 557 704 499 736 q 640 617 615 672 q 665 456 665 561 l 665 0 l 545 0 l 545 456 q 506 589 545 547 q 396 631 467 631 q 296 602 343 631 q 229 526 249 574 q 210 393 210 478 l 210 0 l 90 0 "},"⸗":{"x_min":43,"x_max":411,"ha":454,"o":"m 411 502 l 43 339 l 43 462 l 411 624 l 411 502 m 411 256 l 43 94 l 43 216 l 411 379 l 411 256 "},"0":{"x_min":56,"x_max":691,"ha":756,"o":"m 56 490 q 91 773 56 666 q 197 939 127 881 q 373 998 267 998 q 510 965 451 998 q 608 872 570 933 q 669 725 647 812 q 691 490 691 637 q 655 207 691 315 q 550 41 620 100 q 373 -17 480 -17 q 152 86 232 -17 q 56 490 56 210 m 178 490 q 235 164 178 245 q 373 83 291 83 q 511 164 455 83 q 568 490 568 246 q 511 816 568 735 q 372 897 455 897 q 240 825 289 897 q 178 490 178 734 "},".":{"x_min":124,"x_max":260,"ha":378,"o":"m 124 0 l 124 139 l 260 139 l 260 0 l 124 0 "},"@":{"x_min":74,"x_max":1332.5625,"ha":1382,"o":"m 771 110 q 675 28 728 59 q 567 -2 621 -2 q 452 33 508 -2 q 361 141 396 68 q 327 302 327 214 q 381 518 327 410 q 515 680 435 626 q 672 735 596 735 q 782 703 730 735 q 873 610 835 672 l 895 714 l 1014 714 l 918 260 q 899 154 899 164 q 912 123 899 136 q 945 110 926 110 q 1037 151 980 110 q 1157 296 1113 205 q 1202 485 1202 388 q 1145 696 1202 598 q 975 854 1088 795 q 726 913 862 913 q 442 838 570 913 q 242 625 313 764 q 172 328 172 487 q 242 42 172 162 q 447 -134 313 -77 q 744 -191 581 -191 q 1036 -132 918 -191 q 1212 13 1154 -72 l 1332 13 q 1216 -132 1298 -58 q 1020 -248 1133 -205 q 746 -292 906 -292 q 474 -253 598 -292 q 262 -137 349 -214 q 129 41 174 -59 q 74 317 74 169 q 140 633 74 483 q 370 914 221 816 q 732 1012 519 1012 q 1028 943 897 1012 q 1235 738 1159 874 q 1300 483 1300 620 q 1164 133 1300 286 q 900 -3 1043 -3 q 826 11 854 -3 q 784 52 797 25 q 771 110 775 69 m 450 294 q 493 149 450 201 q 592 98 536 98 q 670 121 629 98 q 749 188 712 143 q 811 302 787 233 q 835 440 835 370 q 790 583 835 532 q 680 634 745 634 q 600 611 638 634 q 527 541 563 589 q 471 422 492 492 q 450 294 450 352 "},"f":{"x_min":13,"x_max":425.5,"ha":378,"o":"m 119 0 l 119 625 l 13 625 l 13 720 l 119 720 l 119 796 q 131 904 119 869 q 192 981 148 951 q 314 1011 235 1011 q 425 998 364 1011 l 407 892 q 337 899 370 899 q 260 875 283 899 q 238 786 238 851 l 238 720 l 375 720 l 375 625 l 238 625 l 238 0 l 119 0 "},";":{"x_min":113.03125,"x_max":257,"ha":378,"o":"m 121 581 l 121 720 l 257 720 l 257 581 l 121 581 m 121 0 l 121 139 l 257 139 l 257 0 q 230 -123 257 -76 q 146 -196 203 -170 l 113 -144 q 168 -94 150 -127 q 187 0 187 -61 l 121 0 "},"i":{"x_min":90,"x_max":210,"ha":302,"o":"m 90 853 l 90 993 l 210 993 l 210 853 l 90 853 m 90 0 l 90 720 l 210 720 l 210 0 l 90 0 "},"6":{"x_min":51,"x_max":694,"ha":756,"o":"m 676 745 l 558 745 q 512 844 542 812 q 393 897 464 897 q 292 864 335 897 q 203 742 236 822 q 171 512 171 661 q 275 612 213 579 q 406 645 338 645 q 610 555 526 645 q 694 322 694 465 q 654 148 694 229 q 545 25 614 68 q 389 -17 476 -17 q 145 95 239 -17 q 51 464 51 207 q 155 883 51 752 q 400 997 246 997 q 588 930 515 997 q 676 745 662 863 m 188 322 q 215 201 188 258 q 288 113 241 143 q 387 83 335 83 q 517 145 463 83 q 572 315 572 208 q 518 477 572 418 q 382 537 464 537 q 245 477 301 537 q 188 322 188 418 "},"A":{"x_min":-2,"x_max":909.84375,"ha":908,"o":"m -2 0 l 372 993 l 511 993 l 909 0 l 762 0 l 649 301 l 241 301 l 134 0 l -2 0 m 279 408 l 609 408 l 507 683 q 438 889 461 808 q 386 699 420 793 l 279 408 "},"n":{"x_min":90,"x_max":664,"ha":758,"o":"m 90 0 l 90 720 l 198 720 l 198 617 q 422 736 275 736 q 539 712 486 736 q 620 651 593 689 q 657 560 646 613 q 664 442 664 527 l 664 0 l 544 0 l 544 437 q 530 549 544 512 q 480 607 516 585 q 397 630 445 630 q 265 580 320 630 q 209 392 209 531 l 209 0 l 90 0 "},"O":{"x_min":66,"x_max":998,"ha":1059,"o":"m 66 483 q 196 871 66 731 q 532 1011 326 1011 q 775 945 667 1011 q 941 761 884 879 q 998 495 998 644 q 938 224 998 344 q 768 44 878 105 q 532 -17 658 -17 q 286 50 394 -17 q 121 235 177 118 q 66 483 66 353 m 199 482 q 293 199 199 302 q 531 96 388 96 q 770 200 676 96 q 865 496 865 304 q 824 707 865 617 q 707 848 784 798 q 533 898 629 898 q 297 802 396 898 q 199 482 199 706 "},"3":{"x_min":56.78125,"x_max":695,"ha":757,"o":"m 56 262 l 176 278 q 246 128 197 174 q 367 83 296 83 q 509 142 451 83 q 568 290 568 202 q 514 429 568 374 q 377 484 460 484 q 292 470 343 484 l 306 577 q 325 576 317 576 q 462 616 401 576 q 524 741 524 657 q 479 852 524 808 q 364 897 434 897 q 248 852 294 897 q 188 718 201 807 l 68 739 q 168 929 90 862 q 361 997 246 997 q 508 962 441 997 q 611 867 575 927 q 646 739 646 806 q 613 622 646 674 q 512 538 579 569 q 647 453 599 517 q 695 293 695 389 q 601 72 695 163 q 366 -18 508 -18 q 153 60 238 -18 q 56 262 68 138 "},"]":{"x_min":25.78125,"x_max":290,"ha":378,"o":"m 290 -276 l 25 -276 l 25 -175 l 170 -175 l 170 892 l 25 892 l 25 993 l 290 993 l 290 -276 "},"m":{"x_min":90,"x_max":1046,"ha":1134,"o":"m 90 0 l 90 720 l 197 720 l 197 618 q 285 703 230 671 q 410 736 340 736 q 539 702 489 736 q 610 609 589 669 q 828 736 694 736 q 989 676 933 736 q 1046 493 1046 617 l 1046 0 l 927 0 l 927 453 q 915 558 927 526 q 873 610 903 590 q 801 630 842 630 q 678 579 727 630 q 629 417 629 529 l 629 0 l 509 0 l 509 467 q 479 589 509 548 q 384 630 450 630 q 290 602 333 630 q 228 523 248 575 q 209 373 209 471 l 209 0 l 90 0 "},"9":{"x_min":56,"x_max":697,"ha":757,"o":"m 73 229 l 188 240 q 244 120 203 157 q 350 83 285 83 q 446 109 405 83 q 514 177 488 134 q 559 294 541 221 q 577 443 577 367 q 577 468 577 451 q 478 373 541 409 q 344 337 416 337 q 139 426 223 337 q 56 662 56 515 q 143 905 56 813 q 362 998 230 998 q 536 945 457 998 q 656 796 615 893 q 697 517 697 700 q 656 213 697 326 q 535 41 615 100 q 347 -17 455 -17 q 161 47 233 -17 q 73 229 88 112 m 563 668 q 508 835 563 773 q 376 897 454 897 q 238 830 297 897 q 178 658 178 764 q 235 504 178 563 q 373 445 291 445 q 510 504 456 445 q 563 668 563 563 "},"Ɽ":{"x_min":107,"x_max":965.75,"ha":983,"o":"m 965 0 l 803 0 l 674 206 q 602 315 631 275 q 516 409 550 387 q 457 436 486 429 q 385 441 437 441 l 236 441 l 236 -35 q 242 -132 236 -108 q 308 -185 257 -185 q 364 -175 329 -185 l 387 -279 q 293 -292 342 -292 q 140 -215 185 -292 q 107 -40 107 -157 l 107 994 l 539 994 q 711 976 652 994 q 845 872 799 949 q 886 722 886 804 q 611 451 886 490 q 689 402 663 426 q 796 270 747 348 l 965 0 m 753 722 q 544 884 753 884 l 236 884 l 236 555 l 513 555 q 727 633 677 555 q 753 722 753 675 "},"l":{"x_min":87,"x_max":207,"ha":303,"o":"m 87 0 l 87 994 l 207 994 l 207 0 l 87 0 "},"8":{"x_min":55,"x_max":697,"ha":757,"o":"m 239 539 q 129 618 165 566 q 94 741 94 669 q 170 923 94 849 q 373 997 246 997 q 579 921 501 997 q 657 738 657 846 q 621 618 657 669 q 513 539 586 566 q 650 442 603 509 q 697 284 697 376 q 608 69 697 156 q 376 -17 520 -17 q 143 70 231 -17 q 55 287 55 157 q 103 449 55 384 q 239 539 151 515 m 216 745 q 260 630 216 675 q 376 586 305 586 q 489 630 445 586 q 534 738 534 674 q 488 851 534 805 q 375 897 442 897 q 261 852 306 897 q 216 745 216 807 m 177 286 q 202 185 177 234 q 274 110 226 136 q 377 83 322 83 q 519 139 463 83 q 575 282 575 195 q 517 428 575 370 q 373 486 459 486 q 233 429 289 486 q 177 286 177 372 "},"p":{"x_min":90,"x_max":703,"ha":758,"o":"m 90 -276 l 90 720 l 198 720 l 198 625 q 285 708 237 681 q 403 736 334 736 q 563 688 494 736 q 667 554 632 641 q 703 365 703 468 q 664 166 703 254 q 550 30 625 77 q 394 -16 476 -16 q 287 9 335 -16 q 209 74 239 35 l 209 -276 l 90 -276 m 198 355 q 253 150 198 216 q 387 84 308 84 q 524 152 467 84 q 581 365 581 221 q 525 571 581 503 q 392 640 469 640 q 256 567 315 640 q 198 355 198 494 "},"4":{"x_min":17,"x_max":691,"ha":757,"o":"m 439 0 l 439 238 l 17 238 l 17 350 l 461 994 l 559 994 l 559 350 l 691 350 l 691 238 l 559 238 l 559 0 l 439 0 m 439 350 l 439 798 l 134 350 l 439 350 "},"ꜘ":{"x_min":-45,"x_max":253.015625,"ha":1,"o":"m 253 938 l 10 690 l -45 746 l 197 994 l 253 938 m 45 894 l -45 894 l -45 994 l 45 994 l 45 894 "},"R":{"x_min":107,"x_max":965.75,"ha":983,"o":"m 107 0 l 107 993 l 539 993 q 737 966 669 993 q 845 871 804 939 q 886 722 886 804 q 818 543 886 616 q 611 451 751 471 q 689 402 662 426 q 796 270 745 349 l 965 0 l 803 0 l 674 206 q 581 343 618 296 q 516 409 545 390 q 457 436 487 428 q 385 441 435 441 l 236 441 l 236 0 l 107 0 m 236 555 l 513 555 q 651 573 601 555 q 727 633 701 592 q 753 722 753 674 q 702 837 753 792 q 544 883 652 883 l 236 883 l 236 555 "},"ꜚ":{"x_min":-171.171875,"x_max":172,"ha":1,"o":"m 172 758 l -171 758 l -171 837 l 94 837 l 94 992 l 172 992 l 172 758 "},"o":{"x_min":45,"x_max":706,"ha":757,"o":"m 45 359 q 154 656 45 559 q 375 736 245 736 q 613 638 521 736 q 706 370 706 541 q 665 151 706 231 q 546 28 624 72 q 375 -16 468 -16 q 136 80 227 -16 q 45 359 45 177 m 167 359 q 227 153 167 221 q 375 84 286 84 q 523 153 464 84 q 583 364 583 222 q 523 566 583 497 q 375 635 464 635 q 227 566 286 635 q 167 359 167 498 "},"5":{"x_min":56.9375,"x_max":703,"ha":758,"o":"m 56 260 l 182 271 q 247 130 196 177 q 369 83 298 83 q 516 149 456 83 q 576 325 576 216 q 518 490 576 430 q 367 551 461 551 q 263 524 310 551 q 190 454 217 497 l 78 469 l 172 980 l 657 980 l 657 863 l 268 863 l 215 596 q 399 659 303 659 q 615 568 527 659 q 703 336 703 478 q 625 103 703 202 q 370 -17 532 -17 q 152 58 237 -17 q 56 260 68 134 "}}}
